<?xml version="1.0" encoding="utf-8"?>
<!-- Generator: Adobe Illustrator 19.2.1, SVG Export Plug-In . SVG Version: 6.00 Build 0)  -->
<svg version="1.1" id="Layer_1" xmlns="http://www.w3.org/2000/svg" xmlns:xlink="http://www.w3.org/1999/xlink" x="0px" y="0px"
	 viewBox="0 0 200 200" style="enable-background:new 0 0 200 200;" xml:space="preserve">
<style type="text/css">
	.st0{fill:#FFFFFF;}
</style>
<g>
	<path class="st0" d="M195.5,169.2l-47.8-47.8c7.2-11.8,11.4-25.8,11.4-40.7C159,37.5,121.6,0,78.3,0C35.1,0,0,35.1,0,78.3
		S37.5,159,80.7,159c14.4,0,27.8-3.9,39.4-10.7l48.1,48.1c4.7,4.7,12.3,4.7,17,0l11.9-11.9C201.9,179.8,200.2,173.9,195.5,169.2z
		 M24.1,78.3c0-29.9,24.3-54.2,54.2-54.2c29.9,0,56.6,26.7,56.6,56.6c0,29.9-24.3,54.2-54.2,54.2C50.8,134.9,24.1,108.3,24.1,78.3z"
		/>
</g>
</svg>
