<?xml version="1.0" encoding="utf-8"?>
<!-- Generator: Adobe Illustrator 19.2.1, SVG Export Plug-In . SVG Version: 6.00 Build 0)  -->
<svg version="1.1" id="Layer_1" xmlns="http://www.w3.org/2000/svg" xmlns:xlink="http://www.w3.org/1999/xlink" x="0px" y="0px"
	 viewBox="0 0 200 141.8" style="enable-background:new 0 0 200 141.8;" xml:space="preserve">
<style type="text/css">
	.st0{fill:#F4D659;}
</style>
<g>
	<g>
		<path class="st0" d="M198.9,43.8c-1-1.2-2.4-1.9-4-1.9h-19.5c-4.8-12.7-11.1-25.1-18.2-29.8C132.6-4,67.4-4,42.8,12.1
			c-7.1,4.7-13.4,17.1-18.2,29.8H5.1c-1.5,0-3,0.7-4,1.9c-1,1.2-1.4,2.8-1,4.3L3,62c0.5,2.4,2.6,4.1,5,4.1h5.8
			c-5.6,6.4-8.3,14.5-8.3,22.6c0,10,3.8,19,10.7,25.4c0.1,0.1,0.2,0.1,0.2,0.2v19.5c0,4.2,3.4,7.7,7.7,7.7h18c4.2,0,7.7-3.4,7.7-7.7
			V126h100.6v7.9c0,4.2,3.4,7.7,7.7,7.7h18c4.2,0,7.7-3.4,7.7-7.7v-19.2c7.4-6.7,10.9-16,10.9-25.3c0-8.4-2.8-16.8-8.7-23.3h6.2
			c2.4,0,4.5-1.7,5-4.1l2.9-14C200.2,46.6,199.8,45,198.9,43.8z M51.2,25c19.6-12.9,78-12.9,97.6,0c3.8,2.5,8.7,12.6,13.2,25H38
			C42.5,37.6,47.4,27.5,51.2,25z M28.2,90.6c0-8.3,6.8-15.1,15.1-15.1c8.4,0,15.1,6.8,15.1,15.1s-6.8,15.1-15.1,15.1
			C35,105.8,28.2,99,28.2,90.6z M156.9,105.8c-8.3,0-15.1-6.8-15.1-15.1s6.8-15.1,15.1-15.1c8.4,0,15.1,6.8,15.1,15.1
			S165.2,105.8,156.9,105.8z"/>
	</g>
</g>
</svg>
